<svg fill="none" class="pl_eek100" xmlns="http://www.w3.org/2000/svg"><symbol id="pl_eek_b100" viewBox="0 0 36 20"><g><path id="label_background" fill-rule="evenodd" clip-rule="evenodd" d="M27.774.87a1.75 1.75 0 0 0-1.336-.62H8v19.5h18.438a1.75 1.75 0 0 0 1.336-.62L35.5 10 27.774.87Z" fill="#50AF31"/><g><path fill-rule="evenodd" clip-rule="evenodd" d="M.25 18c0 .966.784 1.75 1.75 1.75h5.999V.251H2a1.75 1.75 0 0 0-1.75 1.75V18Z" fill="#fff"/><path d="M4.81 18.085c-.627 0-1.134-.227-1.521-.683-.386-.456-.578-1.073-.578-1.853 0-.387.053-.74.16-1.06.108-.32.256-.588.445-.803.191-.214.418-.379.68-.495a2.11 2.11 0 0 1 .858-.174c.476 0 .924.147 1.343.44l-.447.688c-.297-.212-.586-.318-.869-.318-.364 0-.654.152-.868.458-.214.303-.321.724-.321 1.264s.097.963.29 1.268c.194.303.465.455.814.455.223 0 .408-.042.554-.127v-1.09h-.79v-.735h1.65v2.359a2.504 2.504 0 0 1-1.4.406Z" fill="#000"/><path fill-rule="evenodd" clip-rule="evenodd" d="m4.731 8.176-.234-.17-.235.17-1.75 1.27.47.647 1.116-.81V12h.8V9.286l1.114.807.47-.648-1.75-1.269ZM4.505 9l-.008-.006L4.488 9h.017Z" fill="#000"/><path d="m2.613 7 1.262-4.901h1.257L6.387 7h-.933l-.23-.967H3.783L3.55 7h-.937Zm1.884-3.975-.54 2.273H5.05l-.547-2.273h-.006Z" fill="#000"/></g><path fill-rule="evenodd" clip-rule="evenodd" d="M2 1h24.575a1 1 0 0 1 .762.352L34.687 10l-7.35 8.648a1 1 0 0 1-.762.352H2a1 1 0 0 1-1-1V2a1 1 0 0 1 1-1Zm34 9-7.901 9.295a2 2 0 0 1-1.524.705H2a2 2 0 0 1-2-2V2a2 2 0 0 1 2-2h24.575A2 2 0 0 1 28.1.705L36 10Z" fill="#000"/><path d="M13.938 15V5.2h4.143c.588 0 1.107.056 1.54.182.434.126.785.308 1.079.546.28.238.49.504.63.826.14.322.21.672.21 1.05 0 .532-.14.966-.406 1.316-.28.35-.659.63-1.134.812.546.154 1.008.42 1.372.798.35.378.532.868.532 1.498 0 .448-.084.84-.253 1.176-.181.35-.42.63-.727.868-.322.238-.7.42-1.148.546a5.561 5.561 0 0 1-1.498.182h-4.34Zm2.114-5.656h1.834c.504 0 .881-.112 1.134-.35.252-.224.378-.532.378-.91 0-.364-.127-.658-.378-.882-.253-.224-.63-.336-1.134-.336h-1.834v2.478Zm0 3.99h2.155c.49 0 .883-.112 1.162-.336.28-.21.42-.546.42-.994 0-.42-.14-.742-.434-.966-.294-.21-.686-.322-1.148-.322h-2.155v2.618Z" fill="#fff"/><path fill-rule="evenodd" clip-rule="evenodd" d="M13.938 16a1 1 0 0 1-1-1V5.2a1 1 0 0 1 1-1h4.143c.644 0 1.264.06 1.82.222.548.159 1.02.399 1.428.729l.018.015c.378.32.69.706.9 1.19.198.457.293.943.293 1.448 0 .718-.194 1.373-.61 1.921a2.752 2.752 0 0 1-.072.088c.08.07.159.145.234.223l.013.015c.548.591.799 1.338.799 2.177 0 .574-.108 1.124-.358 1.623l-.007.014a3.57 3.57 0 0 1-1.004 1.198l-.017.013c-.43.318-.92.55-1.472.705a6.553 6.553 0 0 1-1.768.219h-4.34Zm7.164-5.515A3.1 3.1 0 0 0 20 9.932a2.662 2.662 0 0 0 1.134-.812c.265-.35.405-.784.405-1.316 0-.378-.07-.728-.21-1.05a2.247 2.247 0 0 0-.63-.826 3.007 3.007 0 0 0-1.078-.546c-.433-.126-.951-.182-1.54-.182h-4.143V15h4.34c.546 0 1.05-.056 1.498-.182a3.493 3.493 0 0 0 1.148-.546 2.57 2.57 0 0 0 .727-.868c.169-.336.253-.728.253-1.176 0-.63-.183-1.12-.532-1.498a2.774 2.774 0 0 0-.27-.245ZM19.02 8.994c.252-.224.378-.532.378-.91 0-.364-.127-.658-.378-.882-.253-.224-.63-.336-1.134-.336h-1.834v2.478h1.834c.504 0 .881-.112 1.134-.35Zm-1.968-.65h.834c.181 0 .299-.02.369-.042a.335.335 0 0 0 .064-.026l.014-.009a1.02 1.02 0 0 1 .022-.02.078.078 0 0 0 .024-.033.348.348 0 0 0 .018-.13.261.261 0 0 0-.013-.1c-.002-.004-.007-.015-.029-.035 0 0-.006-.005-.019-.012a.396.396 0 0 0-.073-.028 1.36 1.36 0 0 0-.378-.043h-.834v.478Zm2.317 4.654c.28-.21.42-.546.42-.994 0-.42-.14-.742-.434-.966-.294-.21-.686-.322-1.148-.322h-2.155v2.618h2.155c.49 0 .883-.112 1.162-.336Zm-2.317-.664h1.155c.35 0 .493-.08.538-.117l.017-.014a.54.54 0 0 0 .027-.199.385.385 0 0 0-.023-.156l-.007-.007c-.09-.059-.262-.125-.552-.125h-1.155v.618Z" fill="#000"/></g></symbol><use href="#pl_eek_b100"/></svg>