<svg fill="none" class="pl_eek100" xmlns="http://www.w3.org/2000/svg"><symbol id="pl_eek_c100" viewBox="0 0 36 20"><g><path id="label_background" fill-rule="evenodd" clip-rule="evenodd" d="M27.774.87a1.75 1.75 0 0 0-1.336-.62H8v19.5h18.438a1.75 1.75 0 0 0 1.336-.62L35.5 10 27.774.87Z" fill="#C7D301"/><g><path fill-rule="evenodd" clip-rule="evenodd" d="M.25 18c0 .966.784 1.75 1.75 1.75h5.999V.251H2a1.75 1.75 0 0 0-1.75 1.75V18Z" fill="#fff"/><path d="M4.81 18.085c-.627 0-1.134-.227-1.521-.683-.386-.456-.578-1.073-.578-1.853 0-.387.053-.74.16-1.06.108-.32.256-.588.445-.803.191-.214.418-.379.68-.495a2.11 2.11 0 0 1 .858-.174c.476 0 .924.147 1.343.44l-.447.688c-.297-.212-.586-.318-.869-.318-.364 0-.654.152-.868.458-.214.303-.321.724-.321 1.264s.097.963.29 1.268c.194.303.465.455.814.455.223 0 .408-.042.554-.127v-1.09h-.79v-.735h1.65v2.359a2.504 2.504 0 0 1-1.4.406Z" fill="#000"/><path fill-rule="evenodd" clip-rule="evenodd" d="m4.731 8.176-.234-.17-.235.17-1.75 1.27.47.647 1.116-.81V12h.8V9.286l1.114.807.47-.648-1.75-1.269ZM4.505 9l-.008-.006L4.488 9h.017Z" fill="#000"/><path d="m2.613 7 1.262-4.901h1.257L6.387 7h-.933l-.23-.967H3.783L3.55 7h-.937Zm1.884-3.975-.54 2.273H5.05l-.547-2.273h-.006Z" fill="#000"/></g><path fill-rule="evenodd" clip-rule="evenodd" d="M2 1h24.575a1 1 0 0 1 .762.352L34.687 10l-7.35 8.648a1 1 0 0 1-.762.352H2a1 1 0 0 1-1-1V2a1 1 0 0 1 1-1Zm34 9-7.901 9.295a2 2 0 0 1-1.524.705H2a2 2 0 0 1-2-2V2a2 2 0 0 1 2-2h24.575A2 2 0 0 1 28.1.705L36 10Z" fill="#000"/><path d="M18.6 15.168a5.367 5.367 0 0 1-2.044-.378 4.444 4.444 0 0 1-1.582-1.064 4.675 4.675 0 0 1-1.036-1.624 5.647 5.647 0 0 1-.364-2.044c0-.728.126-1.4.378-2.016a4.883 4.883 0 0 1 1.05-1.582 4.72 4.72 0 0 1 1.61-1.05 5.513 5.513 0 0 1 2.072-.378c.686 0 1.33.098 1.918.308.574.21 1.12.532 1.624.938l-1.148 1.428a4.504 4.504 0 0 0-1.05-.644 3.427 3.427 0 0 0-1.302-.238c-.462 0-.868.07-1.246.224a2.699 2.699 0 0 0-.952.658c-.266.28-.462.616-.602 1.022-.14.406-.21.84-.21 1.33 0 .504.07.966.21 1.372.14.406.336.756.602 1.036.252.294.56.518.938.672.378.154.798.238 1.26.238.504 0 .952-.084 1.358-.266a3.302 3.302 0 0 0 1.036-.7l1.246 1.316a5.35 5.35 0 0 1-1.694 1.078 5.691 5.691 0 0 1-2.072.364Z" fill="#fff"/><path fill-rule="evenodd" clip-rule="evenodd" d="M20.99 7.634a4.537 4.537 0 0 0-.962-.572 3.427 3.427 0 0 0-1.302-.238c-.462 0-.868.07-1.246.224a2.699 2.699 0 0 0-.952.658c-.266.28-.462.616-.602 1.022-.14.406-.21.84-.21 1.33 0 .504.07.966.21 1.372.14.406.336.756.602 1.036.252.294.56.518.938.672.378.154.798.238 1.26.238.504 0 .952-.084 1.358-.266a3.307 3.307 0 0 0 1.036-.7l1.246 1.316a5.91 5.91 0 0 1-.793.617c-.287.185-.586.34-.9.461a5.691 5.691 0 0 1-2.073.364 5.367 5.367 0 0 1-2.044-.378 4.444 4.444 0 0 1-1.582-1.064 4.675 4.675 0 0 1-1.036-1.624 5.647 5.647 0 0 1-.364-2.044c0-.728.126-1.4.378-2.016a4.883 4.883 0 0 1 1.05-1.582 4.72 4.72 0 0 1 1.61-1.05 5.513 5.513 0 0 1 2.072-.378c.686 0 1.33.098 1.918.308.273.1.538.224.797.371.282.161.555.348.817.558l.01.009-1.148 1.428a4.22 4.22 0 0 0-.089-.072Zm-7.986 4.825a5.673 5.673 0 0 0 1.247 1.957 5.452 5.452 0 0 0 1.927 1.3c.75.307 1.567.452 2.422.452.882 0 1.691-.145 2.433-.431a6.347 6.347 0 0 0 2.01-1.275 1 1 0 0 0 .05-1.423l-1.247-1.316a1 1 0 0 0-1.433-.02c-.204.204-.447.37-.723.488l-.015.006c-.254.115-.558.179-.949.179-.338 0-.63-.061-.883-.164a1.406 1.406 0 0 1-.59-.435 1.814 1.814 0 0 1-.381-.673 3.22 3.22 0 0 1-.156-1.046c0-.391.055-.714.156-1.004.1-.29.227-.497.381-.66a1.7 1.7 0 0 1 .605-.42c.237-.097.511-.15.868-.15.368 0 .668.062.911.159.297.133.563.295.804.494a1 1 0 0 0 1.417-.144l1.148-1.428a1 1 0 0 0-.152-1.406 6.76 6.76 0 0 0-1.908-1.098l-.007-.003a6.68 6.68 0 0 0-2.255-.366 6.51 6.51 0 0 0-2.443.45 5.72 5.72 0 0 0-1.946 1.27 5.882 5.882 0 0 0-1.265 1.904l-.003.007a6.273 6.273 0 0 0-.453 2.395c0 .855.145 1.662.43 2.4Z" fill="#000"/></g></symbol><use href="#pl_eek_c100"/></svg>