<svg fill="none" class="pl_eek100" xmlns="http://www.w3.org/2000/svg"><symbol id="pl_eek_d100" viewBox="0 0 36 20"><g><path id="label_background" fill-rule="evenodd" clip-rule="evenodd" d="M27.774.87a1.75 1.75 0 0 0-1.336-.62H8v19.5h18.438a1.75 1.75 0 0 0 1.336-.62L35.5 10 27.774.87Z" fill="#FFED00"/><g><path fill-rule="evenodd" clip-rule="evenodd" d="M.25 18c0 .966.784 1.75 1.75 1.75h5.999V.251H2a1.75 1.75 0 0 0-1.75 1.75V18Z" fill="#fff"/><path d="M4.81 18.085c-.627 0-1.134-.227-1.521-.683-.386-.456-.578-1.073-.578-1.853 0-.387.053-.74.16-1.06.108-.32.256-.588.445-.803.191-.214.418-.379.68-.495a2.11 2.11 0 0 1 .858-.174c.476 0 .924.147 1.343.44l-.447.688c-.297-.212-.586-.318-.869-.318-.364 0-.654.152-.868.458-.214.303-.321.724-.321 1.264s.097.963.29 1.268c.194.303.465.455.814.455.223 0 .408-.042.554-.127v-1.09h-.79v-.735h1.65v2.359a2.504 2.504 0 0 1-1.4.406Z" fill="#000"/><path fill-rule="evenodd" clip-rule="evenodd" d="m4.731 8.176-.234-.17-.235.17-1.75 1.27.47.647 1.116-.81V12h.8V9.286l1.114.807.47-.648-1.75-1.269ZM4.505 9l-.008-.006L4.488 9h.017Z" fill="#000"/><path d="m2.613 7 1.262-4.901h1.257L6.387 7h-.933l-.23-.967H3.783L3.55 7h-.937Zm1.884-3.975-.54 2.273H5.05l-.547-2.273h-.006Z" fill="#000"/></g><path fill-rule="evenodd" clip-rule="evenodd" d="M2 1h24.575a1 1 0 0 1 .762.352L34.687 10l-7.35 8.648a1 1 0 0 1-.762.352H2a1 1 0 0 1-1-1V2a1 1 0 0 1 1-1Zm34 9-7.901 9.295a2 2 0 0 1-1.524.705H2a2 2 0 0 1-2-2V2a2 2 0 0 1 2-2h24.575A2 2 0 0 1 28.1.705L36 10Z" fill="#000"/><path d="M13.938 15V5.2h3.22c.881 0 1.651.112 2.323.322a4.855 4.855 0 0 1 1.694.952c.448.406.784.91 1.023 1.512.224.602.335 1.288.335 2.044 0 1.568-.434 2.786-1.316 3.654-.881.882-2.226 1.316-4.06 1.316h-3.22Zm2.114-1.694h1.288c1.021 0 1.791-.294 2.296-.868.504-.574.756-1.372.756-2.394 0-.966-.267-1.722-.784-2.296-.518-.574-1.274-.854-2.268-.854h-1.288v6.412Z" fill="#fff"/><path fill-rule="evenodd" clip-rule="evenodd" d="M13.938 16a1 1 0 0 1-1-1V5.2a1 1 0 0 1 1-1h3.22c.966 0 1.838.123 2.622.368l.018.005c.79.264 1.468.65 2.038 1.15l.011.01c.574.52.993 1.157 1.28 1.885l.008.02c.272.732.398 1.539.398 2.392 0 1.755-.49 3.259-1.611 4.364C20.779 15.534 19.129 16 17.157 16h-3.22ZM19.48 5.522c-.672-.21-1.442-.322-2.324-.322h-3.22V15h3.22c1.834 0 3.178-.434 4.06-1.316.883-.868 1.317-2.086 1.317-3.654 0-.756-.112-1.442-.336-2.044a3.965 3.965 0 0 0-1.023-1.512 4.855 4.855 0 0 0-1.694-.952Zm-2.43 6.784h.289c.832 0 1.286-.234 1.544-.528.296-.337.508-.872.508-1.734 0-.772-.207-1.272-.527-1.626-.274-.304-.722-.524-1.525-.524h-.288v4.412Zm-1-5.412h1.289c.994 0 1.75.28 2.268.854.517.574.784 1.33.784 2.296 0 1.022-.252 1.82-.756 2.394-.505.574-1.274.868-2.296.868h-1.288V6.894Z" fill="#000"/></g></symbol><use href="#pl_eek_d100"/></svg>