<svg fill="none" class="pl_eek100" xmlns="http://www.w3.org/2000/svg"><symbol id="pl_eek_e100" viewBox="0 0 36 20"><g><path id="label_background" fill-rule="evenodd" clip-rule="evenodd" d="M27.774.87a1.75 1.75 0 0 0-1.336-.62H8v19.5h18.438a1.75 1.75 0 0 0 1.336-.62L35.5 10 27.774.87Z" fill="#FBB900"/><g><path fill-rule="evenodd" clip-rule="evenodd" d="M.25 18c0 .966.784 1.75 1.75 1.75h5.999V.251H2a1.75 1.75 0 0 0-1.75 1.75V18Z" fill="#fff"/><path d="M4.81 18.085c-.627 0-1.134-.227-1.521-.683-.386-.456-.578-1.073-.578-1.853 0-.387.053-.74.16-1.06.108-.32.256-.588.445-.803.191-.214.418-.379.68-.495a2.11 2.11 0 0 1 .858-.174c.476 0 .924.147 1.343.44l-.447.688c-.297-.212-.586-.318-.869-.318-.364 0-.654.152-.868.458-.214.303-.321.724-.321 1.264s.097.963.29 1.268c.194.303.465.455.814.455.223 0 .408-.042.554-.127v-1.09h-.79v-.735h1.65v2.359a2.504 2.504 0 0 1-1.4.406Z" fill="#000"/><path fill-rule="evenodd" clip-rule="evenodd" d="m4.731 8.176-.234-.17-.235.17-1.75 1.27.47.647 1.116-.81V12h.8V9.286l1.114.807.47-.648-1.75-1.269ZM4.505 9l-.008-.006L4.488 9h.017Z" fill="#000"/><path d="m2.613 7 1.262-4.901h1.257L6.387 7h-.933l-.23-.967H3.783L3.55 7h-.937Zm1.884-3.975-.54 2.273H5.05l-.547-2.273h-.006Z" fill="#000"/></g><path fill-rule="evenodd" clip-rule="evenodd" d="M2 1h24.575a1 1 0 0 1 .762.352L34.687 10l-7.35 8.648a1 1 0 0 1-.762.352H2a1 1 0 0 1-1-1V2a1 1 0 0 1 1-1Zm34 9-7.901 9.295a2 2 0 0 1-1.524.705H2a2 2 0 0 1-2-2V2a2 2 0 0 1 2-2h24.575A2 2 0 0 1 28.1.705L36 10Z" fill="#000"/><path d="M13.938 15V5.2h7.126v1.834h-5.012v2.17h4.465v1.638h-4.465v2.324h5.067V15h-7.181Z" fill="#fff"/><path fill-rule="evenodd" clip-rule="evenodd" d="M13.938 16a1 1 0 0 1-1-1V5.2a1 1 0 0 1 1-1h7.126a1 1 0 0 1 1 1v1.834a1 1 0 0 1-1 1h-4.012v.17h3.465a1 1 0 0 1 1 1v1.638a1 1 0 0 1-1 1h-3.465v.324h4.067a1 1 0 0 1 1 1V15a1 1 0 0 1-1 1h-7.181Zm2.114-2.834v-2.324h4.465V9.204h-4.465v-2.17h5.012V5.2h-7.127V15h7.182v-1.834h-5.067Z" fill="#000"/></g></symbol><use href="#pl_eek_e100"/></svg>